<svg xmlns="http://www.w3.org/2000/svg" xml:space="preserve" id="Layer_1" width="245" height="52.5" x="0" y="0" style="enable-background:new 0 0 245 52.5" version="1.1"><style>.st8{fill:#434244}</style><linearGradient id="SVGID_1_" x1="253.708" x2="647.91" y1="311.401" y2="321.398" gradientTransform="matrix(.5 0 0 .5 -50.5 -131)" gradientUnits="userSpaceOnUse"><stop offset=".006" style="stop-color:#eb262a"/><stop offset="1" style="stop-color:#f57e20"/></linearGradient><path d="M76.35 32.29c.5 2 2.5 3.2 4.8 3.2 2.8 0 4.7-1.4 4.7-4.1 0-1.5-.8-2.6-2.1-3.7-2.6-2.1-6.1-3.7-6.1-7.5 0-5.2 4.7-8.7 10-8.7 2.7 0 5.2.6 5.2 2.6 0 1.1-1.2 2.4-2.2 2.8-1.1-1.7-2.2-2.7-4.5-2.7-2.4 0-4 1.1-4 3.4 0 2 1.1 2.8 5.7 6.2 1.7 1.5 2.8 3.1 2.8 5.5 0 5.4-5.7 9-10.9 9-2.8 0-6.7-1.2-6.7-3.5 0-1.3 1.3-3 3.2-3.6 0 .3 0 .7.1 1.1z" style="fill:url(#SVGID_1_)"/><linearGradient id="SVGID_00000003799626595874987000000011818149204910755492_" x1="253.744" x2="647.962" y1="309.252" y2="319.25" gradientTransform="matrix(.5 0 0 .5 -50.5 -131)" gradientUnits="userSpaceOnUse"><stop offset=".006" style="stop-color:#eb262a"/><stop offset="1" style="stop-color:#f57e20"/></linearGradient><path d="M100.15 27.99c-.9 3.4-2.2 8.1-2.4 9.4-.1.5-.1 1 0 1.4-.7.4-2.8 1-4 1-1.1 0-1.4-.3-1.3-1.1 0-.7.2-1.5.6-2.5 2.2-6.5 4.6-14.9 4.9-21.7 0-.7-.2-1.2-.5-1.9 1.3-.7 2.3-1.1 3.4-1.1.5 0 1.1.1 1.5.4.4.4.5 1 .5 1.5 0 .7-.4 4.8-1.4 9.4h7c.5 0 .9 0 1.2-.1.2-.5.4-1.1.5-1.7l2.3-10c.3-1.5 1.1-2.2 2.6-2.1.9.1 2 .5 2.4 1-1 1-4.4 18.9-4.8 20.8-.3 1.3-.5 2.5-.5 3.4s.3 1.7.8 2.4c0 .8-3.2 1.3-4.1 1.3-1.5 0-1.9-.8-1.9-2.1 0-.9.2-2.1.5-3.1.4-1.7.9-4.1 1.5-6.9-1 .4-2.5.4-4.1.4h-3.2c-.4 0-.8 0-1.1.1-.1.6-.2 1.2-.4 1.8z" style="fill:url(#SVGID_00000003799626595874987000000011818149204910755492_)"/><linearGradient id="SVGID_00000049212615487454629300000011088763689894998193_" x1="253.76" x2="647.873" y1="308.943" y2="318.939" gradientTransform="matrix(.5 0 0 .5 -50.5 -131)" gradientUnits="userSpaceOnUse"><stop offset=".006" style="stop-color:#eb262a"/><stop offset="1" style="stop-color:#f57e20"/></linearGradient><path d="M139.35 19.89c0 8.4-6.3 18.3-14.5 18.3-4.9 0-7.4-3-7.4-8.5 0-8.6 6-18.3 14.4-18.3 4.9.1 7.5 3.2 7.5 8.5zm-5-.2c0-3.2-1.1-5.4-3.7-5.4-4.2 0-8 9.1-8 15 0 3.7 1 6.6 3.7 6.2 5.2-.8 8-10.8 8-15.8z" style="fill:url(#SVGID_00000049212615487454629300000011088763689894998193_)"/><linearGradient id="SVGID_00000115479776911206613910000015750966651614390713_" x1="253.757" x2="647.942" y1="307.678" y2="317.676" gradientTransform="matrix(.5 0 0 .5 -50.5 -131)" gradientUnits="userSpaceOnUse"><stop offset=".006" style="stop-color:#eb262a"/><stop offset="1" style="stop-color:#f57e20"/></linearGradient><path d="M145.95 35.29c0 .9.1 1.3.3 1.8-.8.5-2.3.9-3.6.9-1.4 0-2-.5-2-1.5 0-.8.2-1.8.4-2.8 1.5-6.1 2.9-11.6 3.7-15.9.1-.6.2-1.4.2-1.9 0-1.3-1.1-.1-1.1-1.3.1-.9.2-1.4.5-1.7 2-1 4.9-1.6 7.3-1.6 5.5 0 9.1 1.5 9.1 6.1 0 5.3-4.8 9.6-11 9.6-1 0-1.3-1.2-1.3-2.4 0-.1.1-.1.3-.1 4.2 0 7-2.2 7-6.4 0-3-1.9-4-4.9-4-.4 0-1 .1-1.5.2.2.5.3.9.3 1.5 0 .5-.1 1.1-.3 1.9-.9 4.2-2 8.1-2.8 12.4-.4 2.2-.6 4-.6 5.2z" style="fill:url(#SVGID_00000115479776911206613910000015750966651614390713_)"/><linearGradient id="SVGID_00000017486386363534009050000016295716615750837379_" x1="215.638" x2="609.859" y1="305.677" y2="315.676" gradientTransform="matrix(.5 0 0 .5 -50.5 -131)" gradientUnits="userSpaceOnUse"><stop offset=".006" style="stop-color:#eb262a"/><stop offset="1" style="stop-color:#f57e20"/></linearGradient><path d="M174.85 11.99c1.3 0 2.6-.1 3.5-.1 1.3 0 1.9.1 2.3.6-.2 1.6-1.2 3.4-2.6 3.4-.4 0-1-.8-2.8-.8h-1.2c-.9 0-1.8-.1-2.5-.1h-1.5c.3.3.4.7.4 1 0 .2 0 .4-.1.5-.4 1.9-.9 4-1.4 6.3h2c2.1 0 4.3-.2 5.9-.5 0 .3 0 .5-.1.8-.7 2.6-2.7 2.8-5.4 2.8h-3c-.5 1.5-1.2 4.2-1.2 6 0 2.7 2.3 2.4 3.7 2.4 3.4 0 6-1.4 6.9-1.4 0 4.1-3.3 4.7-8.3 4.7h-4.7c-2.5 0-2.8-1.2-2.8-3 0-1.3.4-3.1.7-4.5 1.7-6.3 3.1-11 3.1-13.8 0-.5 0-1.1-.2-1-.4.1-.9.1-1.1.1-.1 0-.1-.2-.1-.6 0-.3.1-.6.2-.9.6-1.2.9-1.4 1.9-1.5 2.7-.3 5.5-.4 8.4-.4z" style="fill:url(#SVGID_00000017486386363534009050000016295716615750837379_)"/><linearGradient id="SVGID_00000174571986331307431770000005313625670907590304_" x1="215.78" x2="609.842" y1="303.976" y2="313.971" gradientTransform="matrix(.5 0 0 .5 -50.5 -131)" gradientUnits="userSpaceOnUse"><stop offset=".006" style="stop-color:#eb262a"/><stop offset="1" style="stop-color:#f57e20"/></linearGradient><path d="M188.45 35.39c0 .5.2 1.3.4 1.8-.9.5-2.2.8-3.5.8s-2.1-.5-2.1-1.5c0-2.5 3-6.2 3.4-9.5-1.1-6.8-3.3-12.1-5.1-12.9-.3-.1-.6-.3-.8-.4 1.5-1.4 2.9-2.1 4.4-2.1 1.3 0 2.2.6 2.8 2 1 2.2 1.8 5.8 2.6 9.7 4.3-6.8 4.7-7.3 5.6-9.3.3-.6.4-1.3.4-2 0-.4 0-.8-.1-1.1.3-.1.6-.1 1-.1 2.4 0 3.6.9 3.6 2.1 0 3.4-5.8 9.4-8 12.2-2.5 2.9-4.6 8.1-4.6 10.3z" style="fill:url(#SVGID_00000174571986331307431770000005313625670907590304_)"/><linearGradient id="SVGID_00000024711919010194046770000000014654349110310324_" x1="200.595" x2="594.779" y1="303.503" y2="313.5" gradientTransform="matrix(.5 0 0 .5 -50.5 -131)" gradientUnits="userSpaceOnUse"><stop offset=".006" style="stop-color:#eb262a"/><stop offset="1" style="stop-color:#f57e20"/></linearGradient><path d="M214.65 23.64c3.5.7 5.3 2.8 5.3 5.6v.2c-.1 2.4-1.3 4.4-3.3 6-2.2 1.8-5.2 2.6-8.5 2.6-1.5 0-4.2-.3-5.4-.5-.8-.2-1.7-1.4-1.7-2.4 0-.4 0-.8.1-1.2 1.6-6.7 4-15.8 4-17.5 0-.5-.1-1.1-.3-1-.4.1-.9.1-1.1.1-.1 0-.1-.2-.1-.6 0-.3.1-.6.2-.9.6-1.2.9-1.2 1.9-1.5 2.1-.6 4.4-.9 6.6-.9h1.5c4.5.2 6.9 1.7 6.9 5.3-.3 2.9-2.5 5.2-6.1 6.7zm-4.1 2c-.3-.1-.7-.1-1 0h-1c-.2 0-.5-.1-.7-.4-.6 2.3-1.3 5.4-1.7 7.7-.1.5-.1.9-.1 1.3.8.7 1.9 1 3.2 1.1 1.8 0 3.2-.5 4.2-1.6s1.4-2.3 1.5-3.8v-.2c0-2.5-1.5-3.7-4.4-4.1zm5.3-8.4c0-2.4-1.7-3.1-4.1-3.1-.4 0-1.7.2-2.4.3.2.5.3.9.3 1.5 0 .4 0 .9-.2 1.5-.4 1.9-.9 4-1.3 5.7.7-.1 2-.1 2.7-.3 3.2-.6 4.9-2.7 5-5.3v-.3z" style="fill:url(#SVGID_00000024711919010194046770000000014654349110310324_)"/><linearGradient id="SVGID_00000015341283478355702190000002180224907994307768_" x1="200.645" x2="594.795" y1="302.147" y2="312.143" gradientTransform="matrix(.5 0 0 .5 -50.5 -131)" gradientUnits="userSpaceOnUse"><stop offset=".006" style="stop-color:#eb262a"/><stop offset="1" style="stop-color:#f57e20"/></linearGradient><path d="M244.45 20.44c0 9.4-7.4 17.5-15.5 17.5-2.3 0-4.7-.8-6.5-2.2 0-.3 0-.6.2-1.3 1.4-6 3.2-12.8 3.9-16.9.1-.3.1-.6.1-.8 0-1-1-.7-1-1.4 0-.9.3-1.7.8-2.5 2.1-.8 5.1-1.4 8-1.4 6.1 0 10 2.7 10 9zm-5 .9c0-4.3-2-6.9-5.7-6.9-.5 0-1.7.1-2.6.3.2.5.2 1 .2 1.5 0 2.5-2.5 11.7-3.5 16.9.3 1.3 1.1 1.8 3.1 1.8 4.8-.1 8.5-7 8.5-13.6z" style="fill:url(#SVGID_00000015341283478355702190000002180224907994307768_)"/><path d="M78.5 41.39c-.39-.2-.87-.4-1.45-.4h-3.49v9.4h1.26v-3.6h2.33c.58 0 1.07-.1 1.45-.4s.78-.6.97-1 .39-.9.39-1.5-.1-1.1-.39-1.5c-.3-.4-.59-.7-1.07-1zm-.1 3.4c-.1.2-.29.4-.48.6-.19.1-.48.2-.78.2h-2.33v-3.2h2.33c.29 0 .48.1.78.2.19.1.39.3.48.6.1.2.19.5.19.8-.09.3-.09.6-.19.8zM87.71 47.99c0 .4-.1.7-.39 1-.29.3-.58.3-.97.3s-.78-.1-.97-.4c-.19-.3-.39-.6-.39-1.1v-4h-1.26v4c0 .9.19 1.5.58 2s.97.7 1.65.7c.48 0 .78-.1 1.16-.3.29-.2.39-.4.58-.7v.9h1.26v-6.6H87.7l.01 4.2zM96.54 43.69c-.39 0-.78.1-1.07.3s-.48.4-.68.7v-.9h-1.26v6.7h1.26v-4.2c0-.4.1-.7.29-1 .19-.2.58-.3.97-.3.19 0 .39 0 .58.1s.29.2.39.3l.87-1.2c-.19-.2-.39-.3-.68-.4-.09-.1-.38-.1-.67-.1zM103.13 45.29c.29-.3.68-.4 1.16-.4.29 0 .48.1.78.2.29.1.48.3.68.5l.97-.8c-.19-.2-.39-.4-.58-.6-.19-.2-.48-.3-.78-.4-.29-.1-.58-.1-.97-.1-.58 0-1.07.1-1.55.3-.48.2-.78.6-.97 1s-.29 1-.29 1.6v1.1c0 .6.1 1.1.29 1.6s.58.8.97 1 .68.3.68.3h.87c.29 0 .68 0 .97-.1.29-.1.58-.2.78-.4s.48-.3.58-.6l-.97-.9c-.19.2-.39.4-.68.5-.29.1-.48.2-.78.2-.48 0-.87-.1-1.16-.4-.29-.3-.39-.7-.39-1.2v-1.1c-.09-.6.1-1 .39-1.3zM113.7 43.69c-.39 0-.78.1-1.07.3s-.48.4-.68.7v-3.6h-1.26v9.4h1.26v-4.3c0-.4.1-.7.39-1 .19-.2.58-.3.97-.3s.78.1.97.4c.19.3.39.6.39 1.1v4.1h1.26v-4.1c0-.9-.19-1.5-.58-2-.39-.5-.97-.7-1.65-.7zM124.28 43.99c-.39-.2-.87-.3-1.36-.3-.48 0-.97.1-1.36.3s-.78.4-.97.7l.97.7c.19-.1.39-.3.68-.3.29 0 .48-.1.78-.1.39 0 .78.1.97.4.19.2.39.6.39 1v.3h-1.84c-.78 0-1.26.2-1.65.5-.39.3-.58.8-.58 1.5s.19 1.2.58 1.6.97.5 1.84.5c.29 0 .48 0 .78-.1.19-.1.39-.1.58-.3.1-.1.19-.2.29-.3v.5h1.26v-4.3c0-.5-.1-1-.29-1.3-.4-.6-.69-.8-1.07-1zm-.49 5.3c-.19.1-.58.2-1.07.2-.48 0-.78-.1-.97-.2-.19-.2-.29-.4-.29-.8 0-.3.1-.5.29-.7.19-.2.39-.2.78-.2h1.84v1.2c-.19.2-.29.4-.58.5zM133.88 46.59c-.29-.1-.68-.2-1.16-.2h-.2c-.39 0-.58 0-.78-.1a.71.71 0 0 1-.48-.2c-.1-.1-.19-.2-.19-.4 0-.3.1-.5.29-.7.19-.2.58-.2.97-.2.29 0 .58.1.97.2s.68.3.97.5l.78-1c-.29-.2-.58-.4-.78-.5-.19-.1-.58-.2-.87-.3-.29-.1-.68-.1-.97-.1-.58 0-1.07.1-1.45.2-.39.2-.68.4-.87.7-.19.3-.29.7-.29 1.2s.1.8.29 1.1c.19.3.48.4.78.5s.68.2 1.07.2h.4c.39 0 .68.1.87.1s.39.1.48.2.19.3.19.5c0 .3-.1.6-.39.7-.29.1-.68.2-1.16.2-.39 0-.68-.1-1.07-.2s-.68-.3-1.07-.6l-.78 1c.29.2.48.4.78.6.29.2.58.3.97.3.39.1.48.1.48.1h.58c.58 0 1.16-.1 1.55-.2.39-.2.68-.4.87-.7.19-.3.29-.7.29-1.2s-.1-.9-.29-1.2c-.1-.2-.39-.4-.78-.5zM143.29 44.09c-.39-.3-.87-.4-1.36-.4-.58 0-1.07.1-1.45.4-.39.2-.78.6-.97 1.1-.19.5-.29 1-.29 1.7v.8c0 .6.1 1.2.39 1.6s.58.8.97 1 .68.3.68.3h.87c.39 0 .78-.1 1.26-.3.39-.2.78-.4 1.07-.7l-.87-.9c-.19.2-.39.3-.68.5s-.48.2-.78.2c-.48 0-.97-.2-1.26-.4-.29-.3-.39-.7-.39-1.2h4.17v-.4c0-.7-.1-1.4-.29-1.9-.4-.7-.69-1.1-1.07-1.4zm-2.91 2.5c0-.5.19-.9.39-1.2.29-.3.68-.5 1.16-.5.39 0 .68.2.97.5.19.3.39.7.39 1.3l-2.91-.1zM157.16 45.29l-1.94-4.2h-1.46l2.81 5.5v3.9h1.26v-3.9l2.82-5.5h-1.46zM167.44 43.99c-.39-.2-.87-.3-1.45-.3s-1.07.1-1.45.3-.68.6-.97 1c-.29.4-.29 1-.29 1.6v1.1c0 .6.1 1.1.29 1.6.19.5.48.8.97 1 .39.2.87.3 1.45.3s1.07-.1 1.45-.3.68-.6.97-1c.19-.4.29-1 .29-1.6v-1.1c0-.6-.1-1.1-.29-1.6-.2-.5-.49-.8-.97-1zm0 3.7c0 .5-.1.9-.39 1.2-.29.3-.58.4-1.07.4-.48 0-.78-.1-1.07-.4-.29-.3-.39-.7-.39-1.2v-1.1c0-.5.1-.9.39-1.2.29-.3.58-.4 1.07-.4.48 0 .78.1 1.07.4s.39.7.39 1.2v1.1zM176.94 47.99c0 .4-.1.7-.39 1-.29.3-.58.3-.97.3s-.78-.1-.97-.4c-.19-.3-.39-.6-.39-1.1v-4h-1.26v4c0 .9.19 1.5.58 2s.97.7 1.65.7c.48 0 .78-.1 1.16-.3.29-.2.39-.4.58-.7v.9h1.26v-6.6h-1.26l.01 4.2zM185.86 43.69c-.39 0-.78.1-1.07.3s-.48.4-.68.7v-.9h-1.26v6.7h1.26v-4.2c0-.4.1-.7.39-1 .19-.2.58-.3.97-.3.19 0 .39 0 .58.1.19.1.29.2.39.3l.87-1.2c-.19-.2-.39-.3-.68-.4-.18-.1-.47-.1-.77-.1zM201.97 41.49c-.48-.3-1.16-.4-1.94-.4h-2.91v9.4h2.91c.78 0 1.36-.1 1.94-.4.48-.3.97-.6 1.16-1.1.29-.5.39-1.1.39-1.8v-2.6c0-.7-.1-1.3-.39-1.8-.19-.7-.58-1.1-1.16-1.3zm.29 5.7c0 .7-.19 1.2-.58 1.5s-.87.5-1.55.5h-1.65v-6.9h1.65c.68 0 1.16.2 1.55.5.39.4.58.9.58 1.5v2.9zM211.18 43.69c-.39 0-.78.1-1.07.3s-.48.4-.68.7v-.9h-1.26v6.7h1.26v-4.2c0-.4.1-.7.39-1 .19-.2.58-.3.97-.3.19 0 .39 0 .58.1.19.1.29.2.39.3l.87-1.2c-.19-.2-.39-.3-.68-.4-.19-.1-.48-.1-.77-.1zM220.1 44.09c-.39-.3-.87-.4-1.36-.4-.58 0-1.07.1-1.45.4-.39.2-.78.6-.97 1.1-.19.5-.29 1-.29 1.7v.8c0 .6.1 1.2.39 1.6.19.5.58.8.97 1s.68.3.68.3h.87c.39 0 .78-.1 1.26-.3s.78-.4 1.07-.7l-.87-.9c-.19.2-.39.3-.68.5-.29.2-.48.2-.78.2-.48 0-.97-.2-1.26-.4-.29-.3-.39-.7-.39-1.2h4.17v-.4c0-.7-.1-1.4-.29-1.9-.39-.7-.68-1.1-1.07-1.4zm-2.91 2.5c0-.5.19-.9.39-1.2.29-.3.68-.5 1.16-.5.39 0 .68.2.97.5.19.3.39.7.39 1.3l-2.91-.1zM229.51 43.99c-.39-.2-.87-.3-1.36-.3-.48 0-.97.1-1.36.3s-.78.4-.97.7l.97.7c.19-.1.39-.3.68-.3.29-.1.48-.1.78-.1.39 0 .78.1.97.4.19.2.39.6.39 1v.3h-1.84c-.78 0-1.26.2-1.65.5s-.58.8-.58 1.5.19 1.2.58 1.6.97.5 1.84.5c.29 0 .48 0 .78-.1.19-.1.39-.1.58-.3.1-.1.19-.2.29-.3v.5h1.26v-4.3c0-.5-.1-1-.29-1.3-.39-.6-.68-.8-1.07-1zm-.48 5.3c-.19.1-.58.2-1.07.2s-.78-.1-.97-.2c-.19-.2-.29-.4-.29-.8 0-.3.1-.5.29-.7.19-.2.39-.2.78-.2h1.84v1.2c-.2.2-.29.4-.58.5zM244.06 44.89c-.19-.4-.39-.7-.78-.9-.29-.2-.78-.3-1.16-.3s-.78.1-1.16.4c-.29.2-.58.6-.78 1v-.1c-.19-.4-.39-.7-.78-.9-.29-.2-.68-.3-1.16-.3-.39 0-.78.1-1.07.3s-.48.4-.68.7v-1h-1.26v6.7h1.26v-4.2c0-.4.1-.7.39-1 .29-.3.58-.3.97-.3s.78.1.97.4c.19.3.39.6.39 1.1v4.1h1.26V46.39c0-.5.1-.8.29-1.1.19-.2.48-.4.97-.4.39 0 .78.1.97.4.19.3.39.6.39 1.1v4.1h1.26v-4.1c0-.6-.1-1.1-.29-1.5z" class="st8"/><linearGradient id="SVGID_00000163778944362495683770000010213475893623939256_" x1="116.129" x2="237.9" y1="300.488" y2="331.496" gradientTransform="matrix(.5 0 0 .5 -50.5 -131)" gradientUnits="userSpaceOnUse"><stop offset=".006" style="stop-color:#eb262a"/><stop offset="1" style="stop-color:#f57e20"/></linearGradient><path d="M72.75 15.39c-.2-1.7-1.1-2.6-2-3.2-.2-.1-.3-.2-.5-.3-.1-.1-.2-.1-.4-.1 0 0-.1 0-.1-.1-.9-.3-1.6-.3-1.6-.3h-.3c-2.3-.1-4.6-.2-6.9-.4l-9-.6c-2-.1-3.9-.2-5.9-.4-2.6-.2-5.2-.3-7.8-.5-1.3-.1-2.7.1-4-.2-.1-.6-.3-1.1-.3-1.7-.2-1.3-.7-2.5-1.7-3.6-1.2-1.3-2.7-2.1-4.4-2.3-2.3-.2-4.6-.4-7-.6-.5 0-1-.2-1.6 0-1.2.2-2 1.7-1.5 2.8.5.9 1.2 1.5 2.3 1.6 2.4.2 4.9.3 7.3.5 1.2.1 1.8.6 2.2 1.8.2.9.4 1.7.5 2.6.2 1.1-.2 2.3-1.3 2.8-.7.4-1.5.5-2.2.6-1.4.2-2.9.1-4.3.2-1.6.1-3.2.2-4.8.7-.3.1-.7.2-1 .4-.1 0-.2.1-.3.1-.1 0-.1.1-.2.1-1.6.7-2.9 1.7-4.2 2.8-1.4 1.2-2.3 2.9-3.4 4.4-.4.6-.8 1.1-1.4 1.5s-1.2.6-1.9.8c.4.1.8.2 1.2.2 2.1.2 3.8-.4 5.4-1.7l.3-.3c.9-.8 1.9-1.5 3.1-1.9.3-.1.7-.2 1-.3.9-.2 2.7-.3 3.4-.1-3.8 1.3-4.5 3.9-4.1 5.9.3-.5.6-.9 1-1.2 1.5-1 3-1.6 4.8-1.6h.2c.1 0 .4 0 .6.1.3 0 .6.1.9.3.4.2.7.4 1 .8l.3.6c.2.8 0 1.4-.8 2-.2.2-.4.3-.6.4s-.4.2-.5.3c-.6.3-1.2.4-1.8.5-.4.1-.8.1-1.1.1-1.5.1-2.9-.1-4.4-.2-2.5-.2-5-.4-7.4-.1-1.4.2-2.8.6-4 1.2-1.3.8-2.3 1.9-2.9 3.3-.1.1-.1.2-.1.4.4-.3.8-.7 1.2-.9.9-.5 1.8-.7 2.8-.9 2-.3 4-.3 5.9.4l1.2.3h.6l2.2.9h.2c3.9 1.7 7.8 2.7 12 1.8-1 .9-2.1 1.5-3.4 1.9-1.2.4-2.5.7-3.9.6.1 0 1 .7 2 1.2.5.2 1 .4 1.6.5 1.7.3 3.4.3 5.1-.2 1.6-.5 3.1-1 4.6-1.5 1.1-.4 2.1-.5 3.4-.5-1.6 2.1-2.6 4.2-1.4 6.8 1.2 2.6 3.4 3.4 6.2 3.4l-.3.6c-.3.5-.4.9-.4.9-.1.9.3 1.8 1.1 2.3 1.8 1.2 4.6-.4 4.8-2.4.1-.6 0-1.1-.2-1.7 4.6-.3 9-.7 13.6-1-.1.3-.2.5-.3.7-.5 1.2.1 2.8 1.4 3.1 1 .3 1.8-.1 2.5-.7 1.1-.9 1.3-2.1.9-3.4.8-.2 1.7-.2 2.5-.2.7 0 1.2-.3 1.7-.7.7-.7.5-2.2-.5-2.6-.2-.1-.4-.1-.6-.1l-20.8 1.3h-.8c-.4 0-.8.1-1.2.1-1.3.1-2.7.2-4 .2-.6 0-1.1-.2-1.5-.7-1-1.1-.6-2.5.3-3.4l.4-.4c.2-.1.4-.3.6-.3 6.1-.4 12.2-.5 18.3-.8-.6-1.1-.8-2.2-1-3.3-.3-1.7-.8-3.3-1.9-4.7-.4-.5-1-.8-1.6-1-1.2-.4-2.5-.7-3.8-1.1-1-.3-2-.7-3-.3-1.6.5-2.9 1.3-4.2 2.4-.9.7-1.6 1.6-2.5 2.2-1 .7-2.1 1.1-3.3 1-1-.1-1.9-.4-2.4-1.3-.8-1.5-.6-3.1-.2-4.6.3-1 .7-2 1-3l1.5-3.6c.5-1.2 1.1-2.3 1.8-3.5.8-1.5 1.7-2.8 3.2-3.6 1.6-.8 3.2-.9 4.9-.2.8.3 1.7.6 2.5.9.9.3 1.9.6 2.8.9 1.9.7 3.9 1.3 5.8 2.1 2.1.8 4.3 1.5 6.4 2.3 2.3.9 3.1 3.1 3.1 4.8 0 .9-.2 1.9-.5 2.8-.4 1.6-.7 3.3-1.2 5-.5 1.4-.9 2.8-1.5 4.1-.3.6-.6 1-1 1.6h.6c2.8-.5 4.4-2.3 5.4-4.9.4-1.1.6-2.2.8-3.4.2-1.3.6-2.5.8-3.8.4-1.8.7-3.6 1.1-5.5.2-1.1.5-2.1.6-3.2v-.3c.3-.6.2-1 .2-1.5zm-52.3 13.4s-.1 0 0 0c-.1 0 0 0 0 0zm.4-.1zm-.2.1zm-1.1.1s-.1 0 0 0c-.1 0 0 0 0 0zm.7-.1c-.1 0-.1.1 0 0-.1.1-.1 0 0 0zm-.2.1c-.1 0-.1 0 0 0-.1 0-.1 0 0 0zm-.3 0z" style="fill:url(#SVGID_00000163778944362495683770000010213475893623939256_)"/><linearGradient id="SVGID_00000158728033542846255780000008114277466910280126_" x1="119.643" x2="241.387" y1="287.231" y2="318.232" gradientTransform="matrix(.5 0 0 .5 -50.5 -131)" gradientUnits="userSpaceOnUse"><stop offset=".006" style="stop-color:#eb262a"/><stop offset="1" style="stop-color:#f57e20"/></linearGradient><path d="M60.75 29.29c.6.1 1-.1 1.1-.6l.6-1.5c.5.2 1 .3 1.4.5.5.1.8-.1 1.1-.8.1-.4 0-.8-.4-.9-.3-.1-.6-.3-.9-.3-.5-.1-.5-.4-.4-.7.2-.4.3-.8.4-1.2.2-.5.1-.8-.4-1-.4-.2-.9 0-1.1.4-.2.5-.4.9-.5 1.4-.1.2-.2.4-.4.3-.3-.1-.7-.2-1-.3-.7-.3-1 0-1.3.8-.1.4.2.8.7.9.4.1.9.3 1.3.4-.2.6-.4 1.1-.6 1.6-.3.5-.1.9.4 1z" style="fill:url(#SVGID_00000158728033542846255780000008114277466910280126_)"/><linearGradient id="SVGID_00000017515080011859984460000002722738246681276314_" x1="119.02" x2="240.782" y1="289.616" y2="320.622" gradientTransform="matrix(.5 0 0 .5 -50.5 -131)" gradientUnits="userSpaceOnUse"><stop offset=".006" style="stop-color:#eb262a"/><stop offset="1" style="stop-color:#f57e20"/></linearGradient><path d="M43.65 23.89c.7 0 1.3-.6 1.3-1.3 0-.6-.5-1.2-1.2-1.2s-1.4.7-1.4 1.3c0 .7.6 1.2 1.3 1.2z" style="fill:url(#SVGID_00000017515080011859984460000002722738246681276314_)"/><linearGradient id="SVGID_00000046310697122776402250000014328797471541614778_" x1="119.305" x2="241.151" y1="288.245" y2="319.272" gradientTransform="matrix(.5 0 0 .5 -50.5 -131)" gradientUnits="userSpaceOnUse"><stop offset=".006" style="stop-color:#eb262a"/><stop offset="1" style="stop-color:#f57e20"/></linearGradient><path d="m51.85 24.29 2 .7.3-.7-2-.7z" style="fill:url(#SVGID_00000046310697122776402250000014328797471541614778_)"/><linearGradient id="SVGID_00000036958587603590130700000003301195962477561271_" x1="120.176" x2="241.912" y1="285.199" y2="316.198" gradientTransform="matrix(.5 0 0 .5 -50.5 -131)" gradientUnits="userSpaceOnUse"><stop offset=".006" style="stop-color:#eb262a"/><stop offset="1" style="stop-color:#f57e20"/></linearGradient><circle cx="46.85" cy="21.09" r="1.2" style="fill:url(#SVGID_00000036958587603590130700000003301195962477561271_)"/><linearGradient id="SVGID_00000103981843291970418010000009295706757068707001_" x1="121.541" x2="243.277" y1="279.91" y2="310.909" gradientTransform="matrix(.5 0 0 .5 -50.5 -131)" gradientUnits="userSpaceOnUse"><stop offset=".006" style="stop-color:#eb262a"/><stop offset="1" style="stop-color:#f57e20"/></linearGradient><circle cx="45.35" cy="17.89" r="1.2" style="fill:url(#SVGID_00000103981843291970418010000009295706757068707001_)"/><linearGradient id="SVGID_00000158019159053606253500000000470495961220407715_" x1="120.323" x2="242.059" y1="284.63" y2="315.629" gradientTransform="matrix(.5 0 0 .5 -50.5 -131)" gradientUnits="userSpaceOnUse"><stop offset=".006" style="stop-color:#eb262a"/><stop offset="1" style="stop-color:#f57e20"/></linearGradient><circle cx="42.15" cy="19.59" r="1.2" style="fill:url(#SVGID_00000158019159053606253500000000470495961220407715_)"/><linearGradient id="SVGID_00000078040103018460411410000017443437698803493017_" x1="107.749" x2="229.613" y1="333.281" y2="364.312" gradientTransform="matrix(.5 0 0 .5 -50.5 -131)" gradientUnits="userSpaceOnUse"><stop offset=".006" style="stop-color:#eb262a"/><stop offset="1" style="stop-color:#f57e20"/></linearGradient><path d="M11.55 36.39c-2.8 1.2-6.4 1.6-6.4 1.6s3.7 2.7 7.2.8 5.3-1.7 5.3-1.7-3.3-1.8-6.1-.7z" style="fill:url(#SVGID_00000078040103018460411410000017443437698803493017_)"/><linearGradient id="SVGID_00000008130456362196928610000013137221140655231635_" x1="112.804" x2="162.159" y1="307.049" y2="303.091" gradientTransform="matrix(.5 0 0 .5 -50.5 -131)" gradientUnits="userSpaceOnUse"><stop offset=".006" style="stop-color:#e9262a"/><stop offset="1" style="stop-color:#931b1e"/></linearGradient><path d="M22.55 28.09c.3-.1.5-.3.8-.5.8-.7 1.1-1.3.8-2-.1-.2-.2-.5-.3-.6-.3-.4-.6-.6-1-.8l-.9-.3c-.2 0-.4-.1-.6-.1h-.2c-1.8 0-3.4.6-4.8 1.6-.4.3-.8.7-1 1.2-.3-1.9.3-4.6 4.1-5.9-.7-.2-2.5-.1-3.4.1-.4.1-.7.2-1 .3-1.1.4-2.1 1.1-3.1 1.9l-.3.3c-1.6 1.3-3.4 1.9-5.4 1.7-.4 0-.8-.1-1.2-.2.7-.2 1.3-.4 1.9-.8s1-1 1.4-1.5c1.1-1.5 1.9-3.2 3.4-4.4 1.3-1.1 2.6-2.1 4.2-2.8.1 0 .1-.1.2-.1s.2-.1.3-.1c.8-.3 1.7-.5 2.7-.5 4 0 7.3 3.2 7.3 7.2-.1 2.7-1.6 5.1-3.9 6.3z" style="fill:url(#SVGID_00000008130456362196928610000013137221140655231635_)"/></svg>